<svg width="34" height="34" viewBox="0 0 34 34" fill="none" xmlns="http://www.w3.org/2000/svg">
<path d="M14 29C14 30.7 15.3 32 17 32C18.7 32 20 30.7 20 29H14Z" stroke="#555555" stroke-width="2" stroke-miterlimit="10" stroke-linecap="round" stroke-linejoin="round"/>
<path d="M23 25V21C23 17.7 20.3 15 17 15C13.7 15 11 17.7 11 21V25C9.9 25 9 25.9 9 27C9 28.1 9.9 29 11 29H23C24.1 29 25 28.1 25 27C25 25.9 24.1 25 23 25Z" stroke="#555555" stroke-width="2" stroke-miterlimit="10" stroke-linecap="round" stroke-linejoin="round"/>
<path d="M17 12V15" stroke="#555555" stroke-width="2" stroke-miterlimit="10" stroke-linecap="round" stroke-linejoin="round"/>
</svg>
