<svg width="60" height="60" viewBox="0 0 60 60" fill="none" xmlns="http://www.w3.org/2000/svg">
<rect width="60" height="60" rx="20" fill="white" fill-opacity="0.36"/>
<path d="M24.4198 16.0002C25.3648 16.029 26.2797 16.194 27.1662 16.4955H27.2547C27.3147 16.524 27.3597 16.5555 27.3897 16.584C27.7212 16.6905 28.0347 16.8105 28.3347 16.9754L28.9047 17.2304C29.1297 17.3504 29.3997 17.5739 29.5497 17.6654C29.6997 17.7539 29.8647 17.8454 29.9997 17.9489C31.6661 16.6755 33.6896 15.9855 35.7745 16.0002C36.721 16.0002 37.666 16.134 38.5644 16.4355C44.1008 18.2354 46.0958 24.3103 44.4293 29.6201C43.4843 32.3336 41.9394 34.81 39.9159 36.8335C37.0195 39.6384 33.8411 42.1283 30.4196 44.2733L30.0447 44.4998L29.6547 44.2583C26.2213 42.1283 23.0248 39.6384 20.1014 36.8185C18.0914 34.795 16.545 32.3336 15.585 29.6201C13.8901 24.3103 15.885 18.2354 21.4814 16.404C21.9164 16.254 22.3648 16.149 22.8148 16.0905H22.9948C23.4163 16.029 23.8348 16.0002 24.2548 16.0002H24.4198ZM37.7845 20.7404C37.1695 20.5289 36.4945 20.8604 36.2695 21.4903C36.0595 22.1203 36.3895 22.8103 37.0195 23.0338C37.981 23.3938 38.6244 24.3403 38.6244 25.3887V25.4352C38.5959 25.7787 38.6994 26.1102 38.9094 26.3652C39.1194 26.6202 39.4344 26.7687 39.7644 26.8002C40.3794 26.7837 40.9044 26.2902 40.9494 25.6587V25.4802C40.9944 23.3788 39.7209 21.4753 37.7845 20.7404Z" fill="white"/>
</svg>
