<svg width="60" height="60" viewBox="0 0 60 60" fill="none" xmlns="http://www.w3.org/2000/svg">
<rect width="60" height="60" rx="20" fill="white" fill-opacity="0.36"/>
<path d="M30.03 15C38.55 15 45 21.9855 45 29.9775C45 39.2464 37.44 45 30 45C27.54 45 24.81 44.339 22.62 43.0471C21.855 42.5814 21.21 42.2359 20.385 42.5063L17.355 43.4076C16.59 43.648 15.9 43.0471 16.125 42.2359L17.13 38.8708C17.295 38.4051 17.265 37.9094 17.025 37.5188C15.735 35.1452 15 32.5463 15 30.0225C15 22.1207 21.315 15 30.03 15ZM36.885 28.1147C35.82 28.1147 34.965 28.971 34.965 30.0376C34.965 31.0891 35.82 31.9604 36.885 31.9604C37.95 31.9604 38.805 31.0891 38.805 30.0376C38.805 28.971 37.95 28.1147 36.885 28.1147ZM29.97 28.1147C28.92 28.0996 28.05 28.971 28.05 30.0225C28.05 31.0891 28.905 31.9454 29.97 31.9604C31.035 31.9604 31.89 31.0891 31.89 30.0376C31.89 28.971 31.035 28.1147 29.97 28.1147ZM23.055 28.1147C21.99 28.1147 21.135 28.971 21.135 30.0376C21.135 31.0891 22.005 31.9604 23.055 31.9604C24.12 31.9454 24.975 31.0891 24.975 30.0376C24.975 28.971 24.12 28.1147 23.055 28.1147Z" fill="white"/>
</svg>
