<svg width="60" height="83" viewBox="0 0 60 83" fill="none" xmlns="http://www.w3.org/2000/svg">
<rect width="60" height="60" rx="20" fill="white" fill-opacity="0.36"/>
<path d="M15.576 77.084C15.024 77.084 14.528 76.988 14.088 76.796C13.656 76.596 13.316 76.324 13.068 75.98C12.82 75.628 12.692 75.224 12.684 74.768L13.848 74.768C13.888 75.16 14.048 75.492 14.328 75.764C14.616 76.028 15.032 76.16 15.576 76.16C16.096 76.16 16.504 76.032 16.8 75.776C17.104 75.512 17.256 75.176 17.256 74.768C17.256 74.448 17.168 74.188 16.992 73.988C16.816 73.788 16.596 73.636 16.332 73.532C16.068 73.428 15.712 73.316 15.264 73.196C14.712 73.052 14.268 72.908 13.932 72.764C13.604 72.62 13.32 72.396 13.08 72.092C12.848 71.78 12.732 71.364 12.732 70.844C12.732 70.388 12.848 69.984 13.08 69.632C13.312 69.28 13.636 69.008 14.052 68.816C14.476 68.624 14.96 68.528 15.504 68.528C16.288 68.528 16.928 68.724 17.424 69.116C17.928 69.508 18.212 70.028 18.276 70.676L17.076 70.676C17.036 70.356 16.868 70.076 16.572 69.836C16.276 69.588 15.884 69.464 15.396 69.464C14.94 69.464 14.568 69.584 14.28 69.824C13.992 70.056 13.848 70.384 13.848 70.808C13.848 71.112 13.932 71.36 14.1 71.552C14.276 71.744 14.488 71.892 14.736 71.996C14.992 72.092 15.348 72.204 15.804 72.332C16.356 72.484 16.8 72.636 17.136 72.788C17.472 72.932 17.76 73.16 18 73.472C18.24 73.776 18.36 74.192 18.36 74.72C18.36 75.128 18.252 75.512 18.036 75.872C17.82 76.232 17.5 76.524 17.076 76.748C16.652 76.972 16.152 77.084 15.576 77.084ZM23.231 70.304C23.727 70.304 24.175 70.412 24.575 70.628C24.975 70.836 25.287 71.152 25.511 71.576C25.743 72 25.859 72.516 25.859 73.124L25.859 77L24.779 77L24.779 73.28C24.779 72.624 24.615 72.124 24.287 71.78C23.959 71.428 23.511 71.252 22.943 71.252C22.367 71.252 21.907 71.432 21.563 71.792C21.227 72.152 21.059 72.676 21.059 73.364L21.059 77L19.967 77L19.967 68.12L21.059 68.12L21.059 71.36C21.275 71.024 21.571 70.764 21.947 70.58C22.331 70.396 22.759 70.304 23.231 70.304ZM27.2347 73.688C27.2347 73.016 27.3707 72.428 27.6428 71.924C27.9148 71.412 28.2868 71.016 28.7587 70.736C29.2387 70.456 29.7707 70.316 30.3547 70.316C30.9308 70.316 31.4308 70.44 31.8548 70.688C32.2788 70.936 32.5948 71.248 32.8028 71.624L32.8028 70.424L33.9068 70.424L33.9068 77L32.8028 77L32.8028 75.776C32.5868 76.16 32.2628 76.48 31.8308 76.736C31.4068 76.984 30.9108 77.108 30.3428 77.108C29.7588 77.108 29.2308 76.964 28.7587 76.676C28.2867 76.388 27.9148 75.984 27.6427 75.464C27.3707 74.944 27.2347 74.352 27.2347 73.688ZM32.8028 73.7C32.8028 73.204 32.7028 72.772 32.5028 72.404C32.3028 72.036 32.0308 71.756 31.6868 71.564C31.3508 71.364 30.9788 71.264 30.5708 71.264C30.1628 71.264 29.7908 71.36 29.4548 71.552C29.1188 71.744 28.8508 72.024 28.6508 72.392C28.4508 72.76 28.3508 73.192 28.3508 73.688C28.3508 74.192 28.4508 74.632 28.6508 75.008C28.8508 75.376 29.1188 75.66 29.4548 75.86C29.7908 76.052 30.1628 76.148 30.5708 76.148C30.9788 76.148 31.3508 76.052 31.6868 75.86C32.0308 75.66 32.3028 75.376 32.5028 75.008C32.7028 74.632 32.8028 74.196 32.8028 73.7ZM36.8441 71.492C37.0361 71.116 37.3081 70.824 37.6601 70.616C38.0201 70.408 38.4561 70.304 38.9681 70.304L38.9681 71.432L38.6801 71.432C37.4561 71.432 36.8441 72.096 36.8441 73.424L36.8441 77L35.7521 77L35.7521 70.424L36.8441 70.424L36.8441 71.492ZM46.2287 73.46C46.2287 73.668 46.2167 73.888 46.1927 74.12L40.9367 74.12C40.9767 74.768 41.1967 75.276 41.5967 75.644C42.0047 76.004 42.4967 76.184 43.0727 76.184C43.5447 76.184 43.9367 76.076 44.2487 75.86C44.5687 75.636 44.7927 75.34 44.9207 74.972L46.0967 74.972C45.9207 75.604 45.5687 76.12 45.0407 76.52C44.5127 76.912 43.8567 77.108 43.0727 77.108C42.4487 77.108 41.8887 76.968 41.3927 76.688C40.9047 76.408 40.5207 76.012 40.2407 75.5C39.9607 74.98 39.8207 74.38 39.8207 73.7C39.8207 73.02 39.9567 72.424 40.2287 71.912C40.5007 71.4 40.8807 71.008 41.3687 70.736C41.8647 70.456 42.4327 70.316 43.0727 70.316C43.6967 70.316 44.2487 70.452 44.7287 70.724C45.2087 70.996 45.5767 71.372 45.8327 71.852C46.0967 72.324 46.2287 72.86 46.2287 73.46ZM45.1007 73.232C45.1007 72.816 45.0087 72.46 44.8247 72.164C44.6407 71.86 44.3887 71.632 44.0687 71.48C43.7567 71.32 43.4087 71.24 43.0247 71.24C42.4727 71.24 42.0007 71.416 41.6087 71.768C41.2247 72.12 41.0047 72.608 40.9487 73.232L45.1007 73.232Z" fill="white"/>
<path d="M27.1325 30.463L27.3574 30.8565C28.2993 32.4879 29.2536 33.9201 29.9573 34.8066L30.4314 35.3367C30.6859 35.6155 30.9881 35.9259 31.1914 36.056C31.9353 36.5317 32.8659 36.5545 33.6024 36.1293L33.6665 36.0923C34.1374 35.7992 34.9028 34.7956 34.8943 34.781C36.1241 33.163 38.0686 29.3002 38.6687 27.0001L38.835 26.3176C38.8762 26.1349 38.9184 25.9224 38.9316 25.7681C38.992 25.2806 38.8777 24.7866 38.6352 24.3665C38.3644 23.8976 37.9688 23.5447 37.4909 23.3453L36.7901 23.1286L36.636 23.085C34.5025 22.42 29.7334 22.0718 27.5302 22.3946L27.1997 22.4471C26.8067 22.5184 26.2701 22.6426 25.9861 22.7895C25.6342 22.9927 25.3452 23.2686 25.1178 23.6148C24.848 24.0718 24.7346 24.6127 24.8005 25.1347C24.8558 25.4903 25.1834 26.4653 25.1925 26.4812C25.5389 27.455 26.2471 28.8983 27.1325 30.463Z" fill="white"/>
<path d="M30.486 24.1259C32.6826 23.2678 35.1422 24.3091 35.9791 26.4515C36.816 28.594 34.1963 29.6419 31.9998 30.5L28.9022 31.8083C24.8458 35.0548 22.0825 40.1686 21.4248 38.4851C20.7683 36.8044 26.6748 26.6306 29.4436 24.8392L30.486 24.1259Z" fill="white"/>
</svg>
