<svg width="24" height="24" viewBox="0 0 24 24" fill="none" xmlns="http://www.w3.org/2000/svg">
<path d="M12.8999 2.8001L15.2999 7.00009C15.5999 7.50009 16.0999 7.80009 16.5999 8.00009L21.2999 9.00009C22.0999 9.20009 22.3999 10.1001 21.7999 10.7001L18.5999 14.3001C18.1999 14.7001 17.9999 15.3001 18.0999 15.9001L18.5999 20.7001C18.6999 21.5001 17.8999 22.0001 17.1999 21.7001L12.7999 19.7001C12.2999 19.5001 11.6999 19.5001 11.1999 19.7001L6.79995 21.7001C6.09995 22.0001 5.29995 21.4001 5.39995 20.7001L5.89995 15.9001C5.99995 15.3001 5.79995 14.8001 5.39995 14.3001L2.19995 10.7001C1.69995 10.1001 1.99995 9.20009 2.69995 9.00009L7.39995 8.00009C7.99995 7.90009 8.39995 7.50009 8.69995 7.00009L11.0999 2.8001C11.4999 2.2001 12.4999 2.2001 12.8999 2.8001Z" stroke="#555555" stroke-width="2" stroke-miterlimit="10" stroke-linecap="round" stroke-linejoin="round"/>
</svg>
